<svg width="45" height="45" viewBox="0 0 45 45" fill="none" xmlns="http://www.w3.org/2000/svg">
<path d="M43.8527 25.9241C43.3674 25.826 42.8945 26.1399 42.7964 26.6252C40.8545 36.2334 32.3187 43.2072 22.5 43.2072C11.082 43.2072 1.79279 33.918 1.79279 22.5C1.79279 11.082 11.082 1.79279 22.5 1.79279C27.8866 1.79279 33.0505 3.89953 36.8981 7.6195H34.5812C34.0861 7.6195 33.6848 8.02081 33.6848 8.5159C33.6848 9.01099 34.0861 9.4123 34.5812 9.4123H39.0837C39.5788 9.4123 39.9801 9.01099 39.9801 8.5159V4.01344C39.9801 3.51835 39.5788 3.11704 39.0837 3.11704C38.5886 3.11704 38.1873 3.51835 38.1873 4.01344V6.37313C34.0022 2.3052 28.3731 0 22.5 0C16.49 0 10.8398 2.34035 6.59004 6.59004C2.34035 10.8398 0 16.49 0 22.5C0 28.51 2.34035 34.1602 6.59004 38.41C10.8398 42.6596 16.49 45 22.5 45C27.724 45 32.8141 43.1692 36.8327 39.845C40.798 36.5649 43.54 31.9961 44.5538 26.9803C44.6519 26.4951 44.3379 26.0222 43.8527 25.9241Z" fill="#41638A"/>
<path d="M44.1036 21.6035C43.6085 21.6035 43.2072 22.0048 43.2072 22.4999C43.2072 22.7004 43.2043 22.9029 43.1986 23.1018C43.1845 23.5967 43.5742 24.0093 44.069 24.0235C44.0778 24.0237 44.0864 24.0238 44.0951 24.0238C44.5782 24.0238 44.9767 23.6392 44.9907 23.1531C44.9969 22.9372 45 22.7174 45 22.5001C45 22.0048 44.5987 21.6035 44.1036 21.6035Z" fill="#41638A"/>
<path d="M21.8723 30.7982H12.7647V29.0281C12.7647 25.2309 22.3577 23.2895 22.3577 17.1511C22.3577 14.0677 19.9596 11.6694 16.6761 11.6694C13.6497 11.6694 11.3087 13.668 11.3087 16.4088C11.3087 17.2653 11.5941 17.5795 12.1652 17.5795C12.8218 17.5795 13.1644 17.1797 13.1644 16.8086C13.1644 14.5531 14.649 13.4396 16.619 13.4396C19.2457 13.4396 20.4734 15.4095 20.4734 17.2083C20.4734 22.2045 10.8232 24.2888 10.8232 29.0282V31.7976C10.8232 32.2545 11.3371 32.5399 11.7083 32.5399H21.8723C22.2435 32.5399 22.5575 32.1117 22.5575 31.6548C22.5575 31.1979 22.2435 30.7982 21.8723 30.7982Z" fill="#41638A"/>
<path d="M34.1488 25.8305H32.5786V20.3202C32.5786 19.8347 32.0932 19.6064 31.6364 19.6064C31.151 19.6064 30.6943 19.8348 30.6943 20.3202V25.8305H25.0984L31.6936 12.8115C31.7507 12.6687 31.7793 12.5545 31.7793 12.4403C31.7793 11.9835 31.2367 11.6694 30.8657 11.6694C30.5231 11.6694 30.1805 11.8407 29.9805 12.2405L22.8144 26.373C22.7288 26.5158 22.7002 26.687 22.7002 26.8584C22.7002 27.2866 22.9572 27.6293 23.4425 27.6293H30.6944V31.7976C30.6944 32.2829 31.1512 32.5399 31.6365 32.5399C32.0933 32.5399 32.5787 32.2829 32.5787 31.7976V27.6293H34.1489C34.5771 27.6293 34.8627 27.1725 34.8627 26.7157C34.8625 26.2873 34.6341 25.8305 34.1488 25.8305Z" fill="#41638A"/>
</svg>
