<svg width="37" height="37" viewBox="0 0 37 37" fill="none" xmlns="http://www.w3.org/2000/svg">
<path d="M36.3305 15.3054C36.7003 15.3054 37 15.0057 37 14.636V0.669541C37 0.299758 36.7003 0 36.3305 0H0.669469C0.299758 0 0 0.299758 0 0.669541V28.1587C0 28.3478 0.0799981 28.5282 0.220266 28.6551C0.360461 28.782 0.548135 28.8437 0.736098 28.8248L7.13211 28.1845V36.3305C7.13211 36.7002 7.43187 37 7.80158 37H22.066C22.4358 37 22.7355 36.7002 22.7355 36.3305V28.7869L28.5288 29.8744V36.3304C28.5288 36.7001 28.8285 36.9999 29.1983 36.9999H36.3305C36.7002 36.9999 36.9999 36.7001 36.9999 36.3304V16.8676C36.9999 16.4979 36.7002 16.1981 36.3305 16.1981C35.9607 16.1981 35.661 16.4979 35.661 16.8676V35.6611H29.8677V25.704C29.8677 25.3343 29.5681 25.0345 29.1983 25.0345C28.8285 25.0345 28.5288 25.3343 28.5288 25.704V28.5121L22.7355 27.4247V25.704C22.7355 25.3343 22.4358 25.0345 22.066 25.0345C21.6962 25.0345 21.3966 25.3343 21.3966 25.704V35.661H15.6033V25.704C15.6033 25.3343 15.3035 25.0345 14.9338 25.0345C14.5641 25.0345 14.2644 25.3343 14.2644 25.704V35.661H8.47105V25.704C8.47105 25.3343 8.17129 25.0345 7.80158 25.0345C7.43187 25.0345 7.13211 25.3343 7.13211 25.704V26.8387L1.33887 27.4187V1.33901H35.661V14.6361C35.6611 15.0057 35.9607 15.3054 36.3305 15.3054Z" fill="#686868"/>
<path d="M27.7382 4.5498H16.0985C15.7288 4.5498 15.429 4.84956 15.429 5.21927C15.429 5.58898 15.7288 5.88874 16.0985 5.88874H27.7382C28.1079 5.88874 28.4076 5.58898 28.4076 5.21927C28.4076 4.84956 28.1079 4.5498 27.7382 4.5498Z" fill="#686868"/>
<path d="M13.8669 4.5498H9.26175C8.89204 4.5498 8.59229 4.84956 8.59229 5.21927C8.59229 5.58898 8.89204 5.88874 9.26175 5.88874H13.8669C14.2366 5.88874 14.5363 5.58898 14.5363 5.21927C14.5363 4.84956 14.2366 4.5498 13.8669 4.5498Z" fill="#686868"/>
<path d="M31.4061 10.4414H26.5417C26.1719 10.4414 25.8723 10.7412 25.8723 11.1109C25.8723 11.4806 26.1719 11.7803 26.5417 11.7803H31.4061C31.7759 11.7803 32.0756 11.4806 32.0756 11.1109C32.0756 10.7411 31.7758 10.4414 31.4061 10.4414Z" fill="#686868"/>
<path d="M24.31 10.4414H5.59379C5.22407 10.4414 4.92432 10.7411 4.92432 11.1109C4.92432 11.4806 5.22407 11.7803 5.59379 11.7803H24.31C24.6798 11.7803 24.9795 11.4806 24.9795 11.1109C24.9795 10.7412 24.6798 10.4414 24.31 10.4414Z" fill="#686868"/>
<path d="M31.4062 14.0889H14.4025C14.0328 14.0889 13.733 14.3886 13.733 14.7583C13.733 15.128 14.0328 15.4278 14.4025 15.4278H31.4061C31.7759 15.4278 32.0756 15.128 32.0756 14.7583C32.0756 14.3887 31.7759 14.0889 31.4062 14.0889Z" fill="#686868"/>
<path d="M12.1709 14.0889H5.59379C5.22407 14.0889 4.92432 14.3886 4.92432 14.7583C4.92432 15.128 5.22407 15.4278 5.59379 15.4278H12.1709C12.5406 15.4278 12.8404 15.128 12.8404 14.7583C12.8404 14.3887 12.5406 14.0889 12.1709 14.0889Z" fill="#686868"/>
<path d="M31.4061 17.7383H21.9895C21.6198 17.7383 21.3201 18.038 21.3201 18.4077C21.3201 18.7775 21.6198 19.0772 21.9895 19.0772H31.4061C31.7759 19.0772 32.0756 18.7775 32.0756 18.4077C32.0756 18.038 31.7758 17.7383 31.4061 17.7383Z" fill="#686868"/>
<path d="M19.7578 17.7373H5.59379C5.22407 17.7373 4.92432 18.0371 4.92432 18.4068C4.92432 18.7765 5.22407 19.0762 5.59379 19.0762H19.7578C20.1276 19.0762 20.4273 18.7765 20.4273 18.4068C20.4273 18.0371 20.1276 17.7373 19.7578 17.7373Z" fill="#686868"/>
</svg>
