<svg width="22" height="19" viewBox="0 0 22 19" fill="none" xmlns="http://www.w3.org/2000/svg">
<path d="M11.8654 1.49483C11.4803 0.829544 10.5198 0.829542 10.1346 1.49483L0.869023 17.499C0.483057 18.1656 0.964116 19 1.73445 19H20.2656C21.0359 19 21.5169 18.1656 21.131 17.499L11.8654 1.49483ZM12 15C12 15.5523 11.5523 16 11 16C10.4477 16 9.99999 15.5523 9.99999 15C9.99999 14.4477 10.4477 14 11 14C11.5523 14 12 14.4477 12 15ZM11 12C10.4477 12 9.99999 11.5523 9.99999 11V9.00002C9.99999 8.44774 10.4477 8.00002 11 8.00002C11.5523 8.00002 12 8.44774 12 9.00002V11C12 11.5523 11.5523 12 11 12Z" fill="#919191"/>
</svg>
