<svg width="23" height="24" viewBox="0 0 23 24" fill="none" xmlns="http://www.w3.org/2000/svg">
<path d="M5.31066 5.81234H6.39114C6.78793 5.81234 7.10994 5.55648 7.10994 5.23589V0.574915C7.10994 0.25586 6.79098 0 6.39114 0H5.31066C4.91387 0 4.59033 0.257402 4.59033 0.574915V5.23589C4.59033 5.55648 4.91387 5.81234 5.31066 5.81234Z" fill="#3D5C81"/>
<path d="M16.607 5.81234H17.6859C18.0873 5.81234 18.4047 5.55648 18.4047 5.23589V0.574915C18.4047 0.25586 18.0873 0 17.6859 0H16.607C16.2102 0 15.8882 0.257402 15.8882 0.574915V5.23589C15.8897 5.55648 16.2102 5.81234 16.607 5.81234Z" fill="#3D5C81"/>
<path d="M22.1301 2.22461H19.2671V5.79432C19.2671 6.59119 18.5575 7.24009 17.6846 7.24009H16.6056C15.7327 7.24009 15.0215 6.59119 15.0215 5.79432V2.22461H7.97087V5.79432C7.97087 6.59119 7.26123 7.24009 6.38677 7.24009H5.31086C4.44098 7.24009 3.72829 6.59119 3.72829 5.79432V2.22461H0.863778C0.387632 2.22461 0 2.61765 0 3.10008V23.1281C0 23.6105 0.387632 24.0005 0.52956 24.0005H21.8005C22.6093 24.0005 23 23.6105 23 23.1281V3.097C22.9985 2.61765 22.6078 2.22461 22.1301 2.22461ZM21.6662 22.0214C21.6662 22.8907 20.9245 22.8152 20.9245 22.8152H13.1703C13.1703 22.8152 17.9119 20.4153 21.6662 17.0075C21.6662 17.0075 21.6662 21.0165 21.6662 22.0214ZM21.8295 14.603C21.5044 15.8993 20.7856 17.4005 19.4747 16.4187C17.564 14.9899 15.6808 13.7769 15.4381 16.6499C15.2382 19.0698 10.8094 22.3605 9.84493 23.0479H1.43912C1.28804 23.0479 1.169 22.9262 1.169 22.7751V10.4291C1.169 10.2765 1.28956 10.1547 1.43912 10.1547H21.5594C21.7074 10.1547 21.831 10.2765 21.831 10.4291L21.8295 14.603Z" fill="#3D5C81"/>
<path d="M7.95083 12.2852H4.59033V15.6776H7.95083V12.2852Z" fill="#3D5C81"/>
<path d="M13.4756 12.2852H10.1182V15.6776H13.4756V12.2852Z" fill="#3D5C81"/>
<path d="M7.95083 17.4316H4.59033V20.8241H7.95083V17.4316Z" fill="#3D5C81"/>
<path d="M10.1182 20.8241H11.0903C11.7999 20.1521 12.8728 19.0408 13.4756 18.2778V17.4316H10.1182V20.8241Z" fill="#3D5C81"/>
<path d="M15.4688 13.8851C15.8075 13.5506 16.215 13.4489 16.5813 13.4489C17.2726 13.4489 18.0341 13.8388 18.8262 14.3675V12.2852H15.4688V13.8851Z" fill="#3D5C81"/>
</svg>
