<svg width="17" height="17" viewBox="0 0 17 17" fill="none" xmlns="http://www.w3.org/2000/svg">
<path d="M12.7309 3.58786C13.3918 3.58786 13.9272 3.06363 13.9272 2.41097V1.17922C13.9272 0.525978 13.3924 0 12.7309 0C12.0693 0 11.5352 0.525394 11.5352 1.17922V2.41156C11.5357 3.06363 12.0699 3.58786 12.7309 3.58786Z" fill="#BABABA"/>
<path d="M16.9816 2.03954H14.5736V2.63907C14.5736 3.62856 13.7581 4.43475 12.7525 4.43475C11.7457 4.43475 10.932 3.62856 10.932 2.63907V2.03954H6.07274V2.63907C6.07274 3.62856 5.25605 4.43475 4.25104 4.43475C3.24602 4.43475 2.42992 3.62915 2.42992 2.63907V2.03954L0 2.00977V16.9998H1.21526H15.7865L17 16.9963L16.9816 2.03954ZM15.7853 15.806H1.21526V6.22985H15.7865V15.806H15.7853Z" fill="#BABABA"/>
<path d="M4.23223 3.58786C4.89316 3.58786 5.42913 3.06363 5.42913 2.41097V1.17922C5.42913 0.525394 4.89316 0 4.23223 0C3.5713 0 3.03711 0.525394 3.03711 1.17922V2.41156C3.03711 3.06363 3.57071 3.58786 4.23223 3.58786Z" fill="#BABABA"/>
<path d="M7.98967 7.51562H6.07617V9.18054H7.98967V7.51562Z" fill="#BABABA"/>
<path d="M11.0852 7.51562H9.16992V9.18054H11.0852V7.51562Z" fill="#BABABA"/>
<path d="M13.9526 7.51562H12.0391V9.18054H13.9526V7.51562Z" fill="#BABABA"/>
<path d="M7.98967 10.2793H6.07617V11.943H7.98967V10.2793Z" fill="#BABABA"/>
<path d="M11.0852 10.2793H9.16992V11.943H11.0852V10.2793Z" fill="#BABABA"/>
<path d="M13.9526 10.2793H12.0391V11.943H13.9526V10.2793Z" fill="#BABABA"/>
<path d="M7.98967 13.0996H6.07617V14.7634H7.98967V13.0996Z" fill="#BABABA"/>
<path d="M4.94942 10.2793H3.03711V11.943H4.94942V10.2793Z" fill="#BABABA"/>
<path d="M4.94942 13.0996H3.03711V14.7634H4.94942V13.0996Z" fill="#BABABA"/>
<path d="M11.0852 13.0996H9.16992V14.7634H11.0852V13.0996Z" fill="#BABABA"/>
<path d="M13.9526 13.0996H12.0391V14.7634H13.9526V13.0996Z" fill="#BABABA"/>
</svg>
