<svg width="20" height="20" viewBox="0 0 20 20" fill="none" xmlns="http://www.w3.org/2000/svg">
<path d="M19.3409 0.659089C18.9015 0.219684 18.3637 0 17.7273 0H2.27274C1.63639 0 1.09849 0.219684 0.659089 0.659089C0.219684 1.09849 0 1.63635 0 2.27274V17.7273C0 18.3635 0.219684 18.9015 0.659089 19.3409C1.09849 19.7804 1.63635 20 2.27274 20H17.7273C18.3636 20 18.9015 19.7804 19.3409 19.3409C19.7805 18.9015 20 18.3636 20 17.7273V2.27274C20 1.63639 19.7804 1.09849 19.3409 0.659089ZM12.9318 9.76138C11.7652 11.3295 10.8107 13.0682 10.0681 14.9773L9.13636 17.3409L7.50001 15.3409C7.16666 14.9318 6.79924 14.5303 6.39775 14.1363C5.99626 13.7424 5.65154 13.4165 5.36367 13.1591C5.07581 12.9015 4.67047 12.5492 4.14775 12.1023C3.62503 11.6553 3.21973 11.2954 2.93183 11.0226L4.40911 8.49994C4.60609 8.66665 4.98108 8.99619 5.53411 9.48857C6.08714 9.98099 6.58336 10.4242 7.02273 10.8181C7.4621 11.212 7.86363 11.5758 8.22728 11.909C9.04548 10.3181 10.0871 8.80678 11.3523 7.37498C12.6175 5.94317 14.1364 4.40147 15.9091 2.74998L17.2727 5.02272C15.5454 6.61367 14.0985 8.19321 12.9318 9.76138Z" fill="#41638A"/>
</svg>
