<svg width="20" height="24" viewBox="0 0 20 24" fill="none" xmlns="http://www.w3.org/2000/svg">
<path d="M17.4331 23H5.60843C4.74449 23 4.04154 22.3028 4.04154 21.446V19.5807H2.56688C1.70295 19.5807 1 18.8836 1 18.0267V2.55402C1 1.69718 1.70295 1 2.56688 1H14.3915C15.2554 1 15.9584 1.69718 15.9584 2.55402V4.41921H17.4331C18.2971 4.41921 19 5.11639 19 5.97323V21.446C19 22.3028 18.2971 23 17.4331 23ZM14.6153 2.55402C14.6153 2.4337 14.5128 2.33202 14.3915 2.33202H2.56688C2.44556 2.33202 2.34304 2.4337 2.34304 2.55402V18.0267C2.34304 18.1471 2.44556 18.2487 2.56688 18.2487H14.3915C14.5128 18.2487 14.6153 18.1471 14.6153 18.0267V2.55402ZM17.657 5.97323C17.657 5.85291 17.5544 5.75123 17.4331 5.75123H15.9584V18.0267C15.9584 18.8836 15.2554 19.5807 14.3915 19.5807H5.38459V21.446C5.38459 21.5663 5.48702 21.668 5.60843 21.668H17.4331C17.5544 21.668 17.657 21.5663 17.657 21.446V5.97323Z" fill="#41638A" stroke="#41638A" stroke-width="0.3"/>
<path d="M9.29971 15H4.65931C4.28837 15 3.98779 14.7019 3.98779 14.334C3.98779 13.9661 4.28837 13.668 4.65931 13.668H9.29971C9.67065 13.668 9.97123 13.9661 9.97123 14.334C9.97123 14.7018 9.67065 15 9.29971 15Z" fill="#41638A" stroke="#41638A" stroke-width="0.3"/>
<path d="M12.2997 11H4.65931C4.28837 11 3.98779 10.7019 3.98779 10.334C3.98779 9.96609 4.28837 9.66798 4.65931 9.66798H12.2997C12.6707 9.66798 12.9712 9.96609 12.9712 10.334C12.9712 10.7019 12.6707 11 12.2997 11Z" fill="#41638A" stroke="#41638A" stroke-width="0.3"/>
<path d="M12.2997 7H4.65931C4.28837 7 3.98779 6.70189 3.98779 6.33399C3.98779 5.96609 4.28837 5.66798 4.65931 5.66798H12.2997C12.6707 5.66798 12.9712 5.96609 12.9712 6.33399C12.9712 6.70189 12.6707 7 12.2997 7Z" fill="#41638A" stroke="#41638A" stroke-width="0.3"/>
</svg>
