<svg width="20" height="20" viewBox="0 0 20 20" fill="none" xmlns="http://www.w3.org/2000/svg">
<path d="M9.99983 0C4.47714 0 0 4.47724 0 9.9999C0 15.5224 4.47714 20 9.99983 20C15.5225 20 20 15.5224 20 9.9999C20 4.47724 15.5225 0 9.99983 0ZM10 3.51244L15.9177 7.20247H4.0824L10 3.51244ZM15.9914 13.095H15.9908C15.9908 13.6869 15.5111 14.1665 14.9193 14.1665H5.08075C4.48887 14.1665 4.00927 13.6868 4.00927 13.095V7.43727C4.00927 7.37467 4.01567 7.31381 4.02607 7.25401L9.68003 10.7796C9.68696 10.7839 9.69436 10.7868 9.70149 10.7908C9.70896 10.795 9.71656 10.799 9.72416 10.8028C9.7641 10.8234 9.80523 10.84 9.8473 10.8508C9.85163 10.852 9.85596 10.8526 9.8603 10.8536C9.90643 10.8644 9.95317 10.8712 9.99983 10.8712H10.0002C10.0005 10.8712 10.0008 10.8712 10.0008 10.8712C10.0475 10.8712 10.0942 10.8646 10.1404 10.8536C10.1447 10.8525 10.149 10.852 10.1534 10.8508C10.1954 10.84 10.2364 10.8234 10.2765 10.8028C10.2841 10.799 10.2917 10.795 10.2992 10.7908C10.3062 10.7868 10.3137 10.7839 10.3206 10.7796L15.9746 7.25401C15.985 7.31381 15.9914 7.37454 15.9914 7.43727V13.095Z" fill="#41638A"/>
</svg>
