<svg width="26" height="23" viewBox="0 0 26 23" fill="none" xmlns="http://www.w3.org/2000/svg">
<path d="M12.8577 1.11166C12.8742 1.06224 12.8952 1.0438 12.9097 1.034C12.9294 1.02065 12.9607 1.00914 13 1.00914C13.0393 1.00914 13.0706 1.02065 13.0903 1.034C13.1048 1.0438 13.1258 1.06224 13.1423 1.11166L15.3333 7.67759C15.5853 8.43273 16.2921 8.94199 17.0882 8.94199L24.1207 8.94199C24.1743 8.94199 24.1984 8.95657 24.2118 8.96705C24.2306 8.98166 24.2515 9.00828 24.2637 9.04654C24.2758 9.0848 24.2741 9.11862 24.2673 9.14137C24.2623 9.1577 24.2511 9.18349 24.2074 9.21444L18.5642 13.2065C17.8985 13.6775 17.6196 14.5289 17.8778 15.3024L20.044 21.794C20.0607 21.844 20.0548 21.8714 20.0491 21.8877C20.0413 21.9102 20.0229 21.9383 19.9911 21.9619C19.9593 21.9855 19.9271 21.9949 19.9033 21.9959C19.886 21.9966 19.8581 21.9944 19.8151 21.9639L14.0684 17.8986C13.4281 17.4457 12.5719 17.4457 11.9316 17.8986L6.1849 21.9639C6.14189 21.9944 6.11396 21.9966 6.09665 21.9959C6.07287 21.9949 6.04066 21.9855 6.00886 21.9619C5.97707 21.9383 5.95875 21.9102 5.95092 21.8877C5.94523 21.8714 5.93931 21.844 5.95599 21.794L8.12223 15.3024C8.38038 14.5289 8.10154 13.6775 7.43578 13.2065L1.79264 9.21444C1.74888 9.18349 1.73767 9.15769 1.73274 9.14137C1.72587 9.11862 1.72415 9.0848 1.73632 9.04654C1.74848 9.00828 1.76942 8.98166 1.78817 8.96705C1.80162 8.95657 1.82567 8.94199 1.87927 8.94199L8.91178 8.94199C9.70785 8.94199 10.4147 8.43273 10.6667 7.67759L12.8577 1.11166Z" stroke="#41638A" stroke-width="1.7"/>
</svg>
