<svg width="49" height="39" viewBox="0 0 49 39" fill="none" xmlns="http://www.w3.org/2000/svg">
<path d="M47.5183 5.00015H42.8848V1.50215C42.8848 1.22476 42.6691 1 42.4031 1H1.48169C1.2156 1 1 1.22476 1 1.50215V34.7327C1 36.5342 2.40605 38 4.13416 38H44.9606C46.6365 38 48 36.5787 48 34.8316V5.5023C48 5.22491 47.7844 5.00015 47.5183 5.00015ZM47.0366 34.8316C47.0366 36.0249 46.1053 36.9957 44.9606 36.9957C43.816 36.9957 42.8848 36.0249 42.8848 34.8316V33.441C42.8848 33.1636 42.6691 32.9388 42.4031 32.9388C42.137 32.9388 41.9214 33.1636 41.9214 33.441V34.8316C41.9214 35.6678 42.2343 36.4289 42.7437 36.9957H4.13416C2.93716 36.9957 1.96338 35.9804 1.96338 34.7326V2.0043H41.9215V28.7513C41.9215 29.0286 42.1371 29.2534 42.4032 29.2534C42.6692 29.2534 42.8848 29.0286 42.8848 28.7513V6.00445H47.0367V34.8316H47.0366ZM20.6636 7.66638H5.31805C5.05196 7.66638 4.83636 7.89114 4.83636 8.16853V20.1661C4.83636 20.4434 5.05196 20.6682 5.31805 20.6682H20.6636C20.9297 20.6682 21.1453 20.4434 21.1453 20.1661V8.16853C21.1453 7.89124 20.9297 7.66638 20.6636 7.66638ZM20.1819 19.6639H5.79974V8.67068H20.1819V19.6639ZM22.7395 8.16853C22.7395 7.89114 22.9551 7.66638 23.2212 7.66638H38.5667C38.8328 7.66638 39.0484 7.89114 39.0484 8.16853C39.0484 8.44592 38.8328 8.67068 38.5667 8.67068H23.2212C22.9551 8.67068 22.7395 8.44592 22.7395 8.16853ZM22.7395 12.1689C22.7395 11.8915 22.9551 11.6667 23.2212 11.6667H38.5667C38.8328 11.6667 39.0484 11.8915 39.0484 12.1689C39.0484 12.4463 38.8328 12.671 38.5667 12.671H23.2212C22.9551 12.671 22.7395 12.4462 22.7395 12.1689ZM22.7395 16.1691C22.7395 15.8917 22.9551 15.667 23.2212 15.667H38.5667C38.8328 15.667 39.0484 15.8917 39.0484 16.1691C39.0484 16.4465 38.8328 16.6713 38.5667 16.6713H23.2212C22.9551 16.6713 22.7395 16.4464 22.7395 16.1691ZM23.2212 20.6714C22.9551 20.6714 22.7395 20.4467 22.7395 20.1693C22.7395 19.8919 22.9551 19.6671 23.2212 19.6671H38.5667C38.8328 19.6671 39.0484 19.8919 39.0484 20.1693C39.0484 20.4467 38.8328 20.6714 38.5667 20.6714H23.2212ZM21.1453 24.1695C21.1453 24.4469 20.9297 24.6717 20.6636 24.6717H5.31805C5.05196 24.6717 4.83636 24.4469 4.83636 24.1695C4.83636 23.8921 5.05196 23.6674 5.31805 23.6674H20.6636C20.9297 23.6674 21.1453 23.8921 21.1453 24.1695ZM21.1453 28.1667C21.1453 28.444 20.9297 28.6688 20.6636 28.6688H5.31805C5.05196 28.6688 4.83636 28.444 4.83636 28.1667C4.83636 27.8893 5.05196 27.6645 5.31805 27.6645H20.6636C20.9297 27.6645 21.1453 27.8893 21.1453 28.1667ZM21.1453 32.1637C21.1453 32.4411 20.9297 32.6658 20.6636 32.6658H5.31805C5.05196 32.6658 4.83636 32.4411 4.83636 32.1637C4.83636 31.8863 5.05196 31.6615 5.31805 31.6615H20.6636C20.9297 31.6615 21.1453 31.8864 21.1453 32.1637ZM39.2311 24.1695C39.2311 24.4469 39.0155 24.6717 38.7495 24.6717H23.4039C23.1378 24.6717 22.9222 24.4469 22.9222 24.1695C22.9222 23.8921 23.1378 23.6674 23.4039 23.6674H38.7495C39.0154 23.6674 39.2311 23.8921 39.2311 24.1695ZM39.2311 28.1667C39.2311 28.444 39.0155 28.6688 38.7495 28.6688H23.4039C23.1378 28.6688 22.9222 28.444 22.9222 28.1667C22.9222 27.8893 23.1378 27.6645 23.4039 27.6645H38.7495C39.0154 27.6645 39.2311 27.8893 39.2311 28.1667ZM39.2311 32.1637C39.2311 32.4411 39.0155 32.6658 38.7495 32.6658H23.4039C23.1378 32.6658 22.9222 32.4411 22.9222 32.1637C22.9222 31.8863 23.1378 31.6615 23.4039 31.6615H38.7495C39.0154 31.6615 39.2311 31.8864 39.2311 32.1637Z" fill="#686868" stroke="#686868" stroke-width="0.3"/>
</svg>
