<svg width="20" height="20" viewBox="0 0 20 20" fill="none" xmlns="http://www.w3.org/2000/svg">
<path d="M10 0C4.45455 0 0 4.45455 0 10C0 15.5455 4.45455 20 10 20C15.5455 20 20 15.5455 20 10C20 4.45455 15.5455 0 10 0ZM15.4545 9.09091H14.7727C14.6364 9.09091 14.5455 9.18182 14.5455 9.31818V15C14.5455 15.2727 14.3636 15.4545 14.0909 15.4545H5.90909C5.63636 15.4545 5.45455 15.2727 5.45455 15V9.31818C5.45455 9.18182 5.36364 9.09091 5.22727 9.09091H4.54545C4.27273 9.09091 4.09091 8.90909 4.09091 8.63636C4.09091 8.5 4.18182 8.31818 4.27273 8.27273L9.72727 4.63636C9.81818 4.59091 9.86364 4.54545 10 4.54545C10.1364 4.54545 10.1818 4.59091 10.2727 4.63636L15.7273 8.27273C15.8636 8.36364 15.9091 8.5 15.9091 8.63636C15.9091 8.90909 15.7273 9.09091 15.4545 9.09091Z" fill="#F35E5E"/>
<path d="M10.1363 6.72745C10.0454 6.682 9.95452 6.682 9.86361 6.72745L7.36361 8.40927C7.31816 8.45472 7.27271 8.50018 7.27271 8.59109V13.4093C7.27271 13.5456 7.36361 13.6365 7.49998 13.6365H8.86361C8.99998 13.6365 9.09089 13.5456 9.09089 13.4093V11.3638C9.09089 11.0911 9.27271 10.9093 9.54543 10.9093H10.4545C10.7273 10.9093 10.9091 11.0911 10.9091 11.3638V13.4093C10.9091 13.5456 11 13.6365 11.1363 13.6365H12.5C12.6363 13.6365 12.7273 13.5456 12.7273 13.4093V8.59109C12.7273 8.50018 12.6818 8.45472 12.6363 8.40927L10.1363 6.72745Z" fill="#F35E5E"/>
</svg>
