<svg width="50" height="50" viewBox="0 0 50 50" fill="none" xmlns="http://www.w3.org/2000/svg">
<path fill-rule="evenodd" clip-rule="evenodd" d="M25 50C38.8071 50 50 38.8071 50 25C50 11.1929 38.8071 0 25 0C11.1929 0 0 11.1929 0 25C0 38.8071 11.1929 50 25 50ZM17 12C14.2388 12 12 14.2385 12 17V33C12 35.7615 14.2388 38 17 38H33C35.7612 38 38 35.7615 38 33V17C38 14.2385 35.7612 12 33 12H17ZM25 34C29.9707 34 34 29.9705 34 25C34 20.0295 29.9707 16 25 16C20.0293 16 16 20.0295 16 25C16 29.9705 20.0293 34 25 34ZM36 16.5C36 17.3284 35.3286 18 34.5 18C33.6714 18 33 17.3284 33 16.5C33 15.6716 33.6714 15 34.5 15C35.3286 15 36 15.6716 36 16.5ZM32 25C32 28.866 28.8662 32 25 32C21.1338 32 18 28.866 18 25C18 21.134 21.1338 18 25 18C28.8662 18 32 21.134 32 25ZM30 25C30 27.7615 27.7612 30 25 30C22.2388 30 20 27.7615 20 25C20 22.2385 22.2388 20 25 20C27.7612 20 30 22.2385 30 25Z" fill="#41638A"/>
</svg>
