<svg width="21" height="16" viewBox="0 0 21 16" fill="none" xmlns="http://www.w3.org/2000/svg">
<path d="M19.9523 15.7182H5.90944C5.33067 15.7182 4.86157 15.2434 4.86157 14.6576C4.86157 14.0717 5.33067 13.5969 5.90944 13.5969H19.9519C20.5307 13.5969 20.9998 14.0717 20.9998 14.6576C20.9998 15.2434 20.5311 15.7182 19.9523 15.7182Z" fill="#41638A"/>
<path d="M19.9523 9.06072H5.90944C5.33067 9.06072 4.86157 8.58591 4.86157 8.00009C4.86157 7.41426 5.33067 6.93945 5.90944 6.93945H19.9519C20.5307 6.93945 20.9998 7.41426 20.9998 8.00009C21.0002 8.58591 20.5311 9.06072 19.9523 9.06072Z" fill="#41638A"/>
<path d="M19.9523 2.403H5.90944C5.33067 2.403 4.86157 1.92819 4.86157 1.34237C4.86157 0.756548 5.33067 0.281738 5.90944 0.281738H19.9519C20.5307 0.281738 20.9998 0.756548 20.9998 1.34237C20.9998 1.92819 20.5311 2.403 19.9523 2.403Z" fill="#41638A"/>
<path d="M1.40729 2.84886C2.18451 2.84886 2.81458 2.21112 2.81458 1.42443C2.81458 0.637739 2.18451 0 1.40729 0C0.630064 0 0 0.637739 0 1.42443C0 2.21112 0.630064 2.84886 1.40729 2.84886Z" fill="#41638A"/>
<path d="M1.40729 9.4243C2.18451 9.4243 2.81458 8.78656 2.81458 7.99987C2.81458 7.21318 2.18451 6.57544 1.40729 6.57544C0.630064 6.57544 0 7.21318 0 7.99987C0 8.78656 0.630064 9.4243 1.40729 9.4243Z" fill="#41638A"/>
<path d="M1.40729 16C2.18451 16 2.81458 15.3622 2.81458 14.5756C2.81458 13.7889 2.18451 13.1511 1.40729 13.1511C0.630064 13.1511 0 13.7889 0 14.5756C0 15.3622 0.630064 16 1.40729 16Z" fill="#41638A"/>
</svg>
