<svg width="8" height="12" viewBox="0 0 8 12" fill="none" xmlns="http://www.w3.org/2000/svg">
<path d="M6.82799 1.09855C5.26564 -0.366182 2.73451 -0.366182 1.17176 1.09855C-0.390588 2.56252 -0.390588 4.93774 1.17176 6.40134C1.17176 6.40134 3.99807 9.00005 3.99807 12C3.99807 9.00005 6.82759 6.40134 6.82759 6.40134C8.39074 4.93811 8.39074 2.56252 6.82799 1.09855ZM3.99847 5.25198C3.1157 5.25198 2.40013 4.58112 2.40013 3.752C2.40013 2.92289 3.1157 2.25203 3.99847 2.25203C4.88445 2.25203 5.60002 2.92289 5.60002 3.752C5.60002 4.58112 4.88445 5.25198 3.99847 5.25198Z" fill="#243C57"/>
</svg>
