<svg width="34" height="34" viewBox="0 0 34 34" fill="none" xmlns="http://www.w3.org/2000/svg">
<path d="M8.73242 31.3438H4.03038C3.46341 31.3438 3.12135 31.0273 2.96795 30.8387C2.70312 30.5129 2.60052 30.0889 2.68665 29.6753C4.06585 23.0505 9.91226 18.2125 16.6615 18.0555C16.774 18.0597 16.8867 18.0625 17 18.0625C17.1144 18.0625 17.2281 18.0596 17.3415 18.0554C18.9919 18.093 20.604 18.4034 22.1384 18.9796C22.825 19.2376 23.5908 18.8898 23.8486 18.2031C24.1065 17.5164 23.7589 16.7507 23.0721 16.4929C22.8523 16.4102 22.6309 16.3329 22.4084 16.2596C24.6065 14.6108 26.0313 11.9843 26.0313 9.03125C26.0313 4.05145 21.9799 0 17 0C12.0201 0 7.96875 4.05145 7.96875 9.03125C7.96875 11.9869 9.39595 14.6155 11.5974 16.2641C9.58056 16.928 7.68798 17.9605 6.03167 19.3229C2.99478 21.8209 0.883254 25.3052 0.0861781 29.1339C-0.163643 30.3336 0.135584 31.5659 0.90716 32.5146C1.67482 33.4586 2.81322 34 4.03038 34H8.73242C9.46595 34 10.0605 33.4054 10.0605 32.6719C10.0605 31.9384 9.46595 31.3438 8.73242 31.3438ZM10.625 9.03125C10.625 5.51604 13.4848 2.65625 17 2.65625C20.5152 2.65625 23.375 5.51604 23.375 9.03125C23.375 12.4423 20.682 15.2361 17.3104 15.3986C17.207 15.3968 17.1036 15.3952 17 15.3952C16.8962 15.3952 16.7924 15.3967 16.6886 15.3985C13.3175 15.2356 10.625 12.442 10.625 9.03125Z" fill="#243C57"/>
<path d="M32.9833 22.8841C32.4148 21.6124 31.1342 20.7884 29.7177 20.7852H25.5758C25.5728 20.7852 25.5701 20.7852 25.567 20.7852C24.0729 20.7852 22.7693 21.6657 22.2448 23.0302C22.175 23.2117 22.0896 23.4404 22.0006 23.707H13.3049C12.9459 23.707 12.6021 23.8524 12.352 24.11L10.0705 26.46C9.56804 26.9775 9.57057 27.8016 10.0762 28.316L12.4004 30.6809C12.6501 30.935 12.9914 31.0781 13.3476 31.0781H17.664C18.3976 31.0781 18.9922 30.4835 18.9922 29.7499C18.9922 29.0164 18.3976 28.4218 17.664 28.4218H13.9045L12.88 27.3794L13.8666 26.3633H22.9969C23.6087 26.3633 24.1414 25.9453 24.2869 25.351C24.3943 24.9122 24.5291 24.4904 24.7241 23.9833C24.8527 23.6489 25.1755 23.4414 25.5702 23.4414C25.571 23.4414 25.5719 23.4414 25.5728 23.4414H29.7146C30.0902 23.4423 30.4135 23.6441 30.5583 23.9681C30.9148 24.7658 31.3406 26.0007 31.3438 27.3539C31.3469 28.7172 30.9217 29.9804 30.5642 30.8C30.4201 31.1306 30.0941 31.3438 29.7301 31.3438C29.7294 31.3438 29.7287 31.3438 29.728 31.3438H25.5361C25.1686 31.3429 24.8244 31.1065 24.6797 30.7555C24.5244 30.3789 24.3897 29.949 24.2682 29.4409C24.0974 28.7275 23.3805 28.2877 22.6674 28.4583C21.954 28.6291 21.5142 29.3458 21.6849 30.0591C21.839 30.7032 22.0155 31.2623 22.2242 31.7683C22.7819 33.1206 24.0795 33.9965 25.533 33.9999H29.7249C29.7278 33.9999 29.7304 33.9999 29.7333 33.9999C31.1511 33.9999 32.4325 33.1612 32.9991 31.8616C33.4581 30.809 34.0043 29.1714 34 27.3476C33.9958 25.5288 33.4448 23.9164 32.9833 22.8841Z" fill="#243C57"/>
<path d="M28.6211 28.6875C29.3546 28.6875 29.9492 28.0929 29.9492 27.3594C29.9492 26.6259 29.3546 26.0312 28.6211 26.0312C27.8876 26.0312 27.293 26.6259 27.293 27.3594C27.293 28.0929 27.8876 28.6875 28.6211 28.6875Z" fill="#243C57"/>
</svg>
