<svg width="43" height="42" viewBox="0 0 43 42" fill="none" xmlns="http://www.w3.org/2000/svg">
<path d="M41.3301 15.8151V15.8341C41.3301 15.8341 41.3301 15.7771 41.2734 15.7581L39.0908 14.0004V7.39712C39.0908 6.47361 38.3462 5.72493 37.4278 5.72493H28.8293L21.9222 0.157302C21.6628 -0.052434 21.2934 -0.052434 21.034 0.157302L14.1269 5.72493H5.52842C4.60999 5.72493 3.86542 6.47361 3.86542 7.39712V13.9909L1.68274 15.7486C1.65841 15.7753 1.63632 15.8038 1.61659 15.8341C0.54722 17.1522 -0.0250262 18.8077 0.000839991 20.5086V35.3493C0.000839991 38.5606 1.73943 42 6.61504 42H36.3789C39.5726 42 42.9931 40.2518 42.9931 35.3493V20.5086C43.0717 18.7854 42.4745 17.1001 41.3301 15.8151ZM39.1002 15.8056L39.6482 16.2521L39.1002 16.6417V15.8056ZM21.4875 1.63947L26.5616 5.73443H16.4135L21.4875 1.63947ZM5.30165 7.39712C5.30165 7.26588 5.40736 7.15959 5.53787 7.15959H37.4372C37.5677 7.15959 37.6734 7.26588 37.6734 7.39712V17.6583L21.4875 29.0025L5.30165 17.6583V7.39712ZM3.87487 15.8246V16.6607L3.32684 16.2521L3.87487 15.8246ZM1.40872 35.3302V20.4991C1.40022 19.3674 1.70435 18.2556 2.28746 17.2877L16.4607 27.2353L2.04179 38.1046C1.62309 37.2404 1.40648 36.2914 1.40872 35.3302ZM36.3789 40.5653L6.59614 40.5558C5.23657 40.6398 3.89991 40.1747 2.88274 39.2637L17.708 28.0999L21.0812 30.5037H21.1379H21.2041C21.293 30.5454 21.3895 30.568 21.4875 30.5702C21.5856 30.568 21.6821 30.5454 21.771 30.5037H21.8371H21.8938L25.2009 28.1854L40.0262 39.3207C38.9921 40.1509 37.7019 40.5911 36.3789 40.5653ZM41.5569 20.5086V35.3397C41.5868 36.3293 41.3656 37.3102 40.9144 38.1901L26.4293 27.2828L40.6876 17.2877C41.2987 18.2464 41.6021 19.3707 41.5569 20.5086Z" fill="#686868"/>
<path d="M25.4844 10.3428H9.89381C9.49979 10.3428 9.18042 10.6639 9.18042 11.0601C9.18042 11.4563 9.49979 11.7774 9.89381 11.7774H25.4844C25.8784 11.7774 26.1978 11.4563 26.1978 11.0601C26.1978 10.6639 25.8784 10.3428 25.4844 10.3428Z" fill="#686868"/>
<path d="M33.0813 15.5869H9.89381C9.49979 15.5869 9.18042 15.908 9.18042 16.3042C9.18042 16.7004 9.49979 17.0216 9.89381 17.0216H33.0813C33.4753 17.0216 33.7947 16.7004 33.7947 16.3042C33.7947 15.908 33.4753 15.5869 33.0813 15.5869Z" fill="#686868"/>
</svg>
