<svg width="45" height="45" viewBox="0 0 45 45" fill="none" xmlns="http://www.w3.org/2000/svg">
<path d="M22.5 45C10.0929 45 0 34.9066 0 22.501C0 10.0944 10.0929 0 22.5 0C34.9071 0 45 10.0934 45 22.501C45 34.9087 34.9071 45 22.5 45ZM22.5 1.52591C10.9352 1.52591 1.52584 10.9357 1.52584 22.501C1.52584 34.0664 10.9352 43.4761 22.5 43.4761C34.0648 43.4761 43.4742 34.0664 43.4742 22.501C43.4742 10.9357 34.0648 1.52591 22.5 1.52591Z" fill="#F35E5E"/>
<path d="M31.9755 23.2632H13.0256C12.6045 23.2632 12.2627 22.9214 12.2627 22.5003C12.2627 22.0791 12.6045 21.7373 13.0256 21.7373H31.9745C32.3956 21.7373 32.7374 22.0791 32.7374 22.5003C32.7374 22.9214 32.3966 23.2632 31.9755 23.2632Z" fill="#F35E5E"/>
</svg>
