<svg width="16" height="12" viewBox="0 0 16 12" fill="none" xmlns="http://www.w3.org/2000/svg">
<path d="M8.48844 0.488281C4.34631 0.488281 0.988281 3.78281 0.988281 7.84687C0.988281 10.0505 1.9668 11.4877 1.9668 11.4877L15.0069 11.4883C15.0069 11.4883 15.9883 9.91762 15.9883 7.84672C15.9883 3.78281 12.6303 0.488281 8.48844 0.488281ZM14.4568 10.5918L2.54376 10.5868C2.54376 10.5868 1.90896 9.41845 1.90896 7.82365C1.90896 4.26167 4.8659 1.37389 8.51359 1.37389C12.1611 1.37389 15.1182 4.26151 15.1182 7.82365C15.1184 9.43647 14.4568 10.5918 14.4568 10.5918Z" fill="#F35A5D"/>
<path d="M10.6074 2.44284L10.5133 2.44269L8.51269 6.25258L6.44013 2.41016L3.60248 9.3516H2.86914V9.90911H6.88664V9.3516H6.08949L6.88664 7.18218L8.51269 9.90911L10.0751 7.18218L10.8721 9.3516H10.0751V9.90911H14.0605V9.3516H13.3701L10.6074 2.44284Z" fill="#F35A5D"/>
</svg>
