<svg width="46" height="49" viewBox="0 0 46 49" fill="none" xmlns="http://www.w3.org/2000/svg">
<path d="M45.9655 45.8083L44.6149 39.8594C44.355 38.3169 43.2756 37.0779 41.7978 36.6259L31.0418 33.3358C30.5674 33.1907 30.0751 33.2539 29.6663 33.4801C29.284 33.135 29.0053 32.5449 29.0053 31.9984V29.2763C29.033 29.252 29.0609 29.2278 29.0885 29.2037C29.1298 29.1675 29.1738 29.1285 29.219 29.0879H30.2725C31.7349 29.0879 33.0915 28.4927 34.0923 27.4118C35.0931 26.3309 35.5935 24.9208 35.501 23.4412L35.2091 18.7649V18.6948C35.2091 18.5672 35.1995 18.4419 35.1812 18.3193L34.8542 13.082C34.8256 12.6239 34.435 12.2762 33.9842 12.3049C33.5323 12.3339 33.1892 12.7288 33.2178 13.187L33.4112 16.2857C33.1974 16.2243 32.972 16.1906 32.739 16.1906H32.6933C32.4523 15.82 32.0526 15.5641 31.5825 15.5212C23.0719 14.7447 20.6216 12.168 18.8323 10.2864C18.4605 9.8954 17.8505 9.86549 17.0196 10.1976C15.5752 10.7747 13.1164 12.6399 13.0627 15.9703C13.0627 15.9748 13.0626 15.9794 13.0626 15.9839V16.1986C12.8996 16.2119 12.7413 16.2417 12.5886 16.2855L12.8415 12.2354C12.976 10.0808 14.0459 8.16022 15.7526 6.93868L15.8147 7.10312C16.2263 8.19346 17.2765 8.92602 18.4281 8.92602H27.7858C28.9373 8.92602 29.9875 8.19346 30.3992 7.10312L30.4136 7.06509C31.2994 7.74185 32.0107 8.61961 32.495 9.64547C32.6359 9.94376 32.9293 10.118 33.2351 10.118C33.3538 10.118 33.4743 10.0916 33.5885 10.0363C33.997 9.83814 34.1696 9.34173 33.974 8.92769C33.307 7.51471 32.2927 6.32853 31.0189 5.46143L31.5835 3.96573C31.7981 3.39716 31.7552 2.7651 31.466 2.23166C31.1768 1.69833 30.6736 1.32287 30.0852 1.2018L25.3798 0.232977C23.8715 -0.0776592 22.3423 -0.0776592 20.8341 0.232977L16.1287 1.20158C15.5403 1.32265 15.037 1.698 14.7478 2.23155C14.4586 2.7651 14.4157 3.39705 14.6304 3.96562L15.1518 5.34659C12.8402 6.83751 11.3803 9.32282 11.2051 12.1302L10.8165 18.3523C10.8013 18.4645 10.7908 18.5781 10.7908 18.6945V18.7646L10.4988 23.4409C10.4064 24.9204 10.9068 26.3306 11.9076 27.4115C12.9084 28.4924 14.2649 29.0876 15.7273 29.0876H16.7809C16.826 29.1281 16.87 29.1672 16.9114 29.2033C16.939 29.2275 16.9668 29.2517 16.9946 29.2759V31.9981C16.9946 32.5445 16.7158 33.1348 16.3335 33.4798C15.9247 33.2535 15.4323 33.1901 14.9581 33.3353L4.20202 36.6256C2.7244 37.0775 1.64497 38.3167 1.38496 39.8591L0.0344651 45.8078C-0.0417516 46.2603 0.59912 45.4909 1.04545 45.5682C1.49135 45.6461 1.57459 46.5402 1.65081 46.0876L3.0013 40.1389C3.15582 39.2222 3.79736 38.4858 4.67555 38.2171L15.4318 34.9268C15.5022 34.9053 15.5771 34.938 15.6103 35.0043C17.4106 37.4902 20 42.0331 21.2674 42.8052C21.7274 43.2457 22.3413 43.5 22.9997 43.5C23.4187 43.5 23.8197 43.397 24.1744 43.2086C26 42.0331 28.7127 37.3192 30.3892 35.0043C30.4223 34.9378 30.4974 34.9048 30.5679 34.9268L41.324 38.217C42.2023 38.4856 42.8438 39.2221 42.9982 40.1388L44.3488 46.0876C44.4007 46.395 44.2656 46.6125 44.1804 46.7148C44.0952 46.8171 43.9065 46.9887 43.5989 46.9887C30.7032 46.9887 16.8109 46.9887 2.40069 46.9887C2.09309 46.9887 1.90435 46.8171 1.81925 46.7148C1.73415 46.6125 1.59905 46.3949 1.65081 46.0876L3.0013 40.1389C3.07752 39.6864 2.84703 39.3384 2.40069 39.2611C1.95458 39.1835 1.46118 39.4065 1.38496 39.8591L0.0344651 45.8078C-0.0848498 46.5162 0.108818 47.2377 0.565899 47.7869C1.02298 48.3361 1.69171 48.6512 2.40069 48.6512H43.5994C44.3082 48.6512 44.977 48.3361 45.4342 47.7869C45.8911 47.2381 46.0849 46.5167 45.9655 45.8083ZM16.185 3.03249C16.2183 2.97123 16.2976 2.86349 16.4552 2.83103L21.1605 1.86232C21.8064 1.72946 22.4566 1.66297 23.1071 1.66297C23.7573 1.66297 24.4078 1.72946 25.0535 1.86232L29.759 2.83103C29.9165 2.86338 29.9959 2.97123 30.0291 3.03249C30.0623 3.09386 30.1096 3.21938 30.0521 3.3717L28.8678 6.50897C28.6974 6.96036 28.2626 7.26366 27.7859 7.26366H18.4282C17.9515 7.26366 17.5167 6.96036 17.3463 6.50897L16.162 3.3717C16.1046 3.21949 16.1518 3.09386 16.185 3.03249ZM33.8646 23.5463C33.928 24.5628 33.5843 25.5314 32.8967 26.274C32.3384 26.877 31.6189 27.26 30.8302 27.3827C31.7316 26.2513 32.6167 24.7564 32.8665 23.0497C33.2065 23.0321 33.5277 22.943 33.818 22.7994L33.8646 23.5463ZM13.1033 26.274C12.4157 25.5314 12.072 24.5627 12.1354 23.5463L12.182 22.7995C12.4723 22.9431 12.7935 23.0321 13.1334 23.0498C13.3831 24.7564 14.2683 26.2513 15.1698 27.3828C14.3811 27.26 13.6616 26.877 13.1033 26.274ZM22.9999 42.0331C21.2879 42.0331 19.7578 38.893 18.8043 37.7204H27.1958C26.3008 38.7244 24.5351 42.0331 22.9999 42.0331ZM28.0257 36.0579H17.9742L17.3409 34.7894C18.1135 34.1342 18.6345 33.0645 18.6345 31.9983V30.5641C19.7078 31.2638 21.0509 31.8066 22.9909 31.8286C22.994 31.8286 22.997 31.8286 23 31.8286C23.0031 31.8286 23.0061 31.8286 23.0091 31.8286C24.9492 31.8066 26.2923 31.2638 27.3656 30.5642V31.9984C27.3656 33.0647 27.8865 34.1343 28.6592 34.7895L28.0257 36.0579ZM28.0186 27.9439C26.5025 29.2676 25.3336 30.1376 23 30.1662C20.6666 30.1376 19.4977 29.2675 17.9815 27.9439C15.9687 26.1869 14.7437 24.0412 14.7048 22.2039C14.6953 21.752 14.3311 21.3905 13.8852 21.3905H13.2611C12.8032 21.3905 12.4308 21.0129 12.4308 20.5488V18.6948C12.4308 18.656 12.4343 18.6182 12.4394 18.5808C12.4417 18.5681 12.4434 18.5553 12.4452 18.5425C12.5161 18.151 12.8547 17.8531 13.2612 17.8531H13.8828C14.3356 17.8531 14.7026 17.481 14.7026 17.0219V15.9912C14.7517 13.1778 17.1137 11.8631 17.8617 11.659C20.2661 14.1457 23.2211 16.407 31.3099 17.1655C31.3769 17.556 31.713 17.8531 32.1175 17.8531H32.7391C33.1455 17.8531 33.4841 18.151 33.5551 18.5425C33.5569 18.5554 33.5586 18.5682 33.5609 18.5808C33.566 18.6181 33.5695 18.656 33.5695 18.6948V20.5488C33.5695 21.0128 33.1971 21.3905 32.7392 21.3905H32.1151C31.6691 21.3905 31.305 21.7518 31.2955 22.2039C31.2563 24.041 30.0314 26.1868 28.0186 27.9439Z" fill="#686868"/>
<path d="M24.443 3.57914H23.819V2.94642C23.819 2.48735 23.452 2.11523 22.9992 2.11523C22.5464 2.11523 22.1793 2.48735 22.1793 2.94642V3.57914H21.5553C21.1025 3.57914 20.7355 3.95126 20.7355 4.41032C20.7355 4.86938 21.1025 5.2415 21.5553 5.2415H22.1793V5.87412C22.1793 6.33318 22.5464 6.7053 22.9992 6.7053C23.452 6.7053 23.819 6.33318 23.819 5.87412V5.2415H24.443C24.8958 5.2415 25.2629 4.86938 25.2629 4.41032C25.2629 3.95126 24.8958 3.57914 24.443 3.57914Z" fill="#686868"/>
</svg>
