<svg width="25" height="26" viewBox="0 0 25 26" fill="none" xmlns="http://www.w3.org/2000/svg">
<path d="M24.6733 9.46912C24.2392 9.04717 23.5375 9.04905 23.1058 9.47324L9.78247 22.5667C8.05393 24.2563 5.24652 24.2563 3.51476 22.5644C1.78429 20.8721 1.78429 18.128 3.51496 16.4363L17.2327 2.95736C18.3119 1.90256 20.0664 1.90256 21.1487 2.95964C22.2307 4.01724 22.2307 5.732 21.1484 6.7899L9.78455 17.8975C9.78382 17.8982 9.7832 17.899 9.78247 17.8998C9.34954 18.3206 8.64989 18.32 8.21784 17.8977C7.78507 17.4747 7.78507 16.7891 8.21784 16.3661L13.7031 11.0034C14.1359 10.5802 14.1358 9.89427 13.7029 9.47126C13.2701 9.04824 12.5683 9.04829 12.1355 9.47141L6.6503 14.834C5.35193 16.1031 5.35193 18.1606 6.65041 19.4298C7.94883 20.6989 10.0538 20.6989 11.3522 19.4298C11.3538 19.4283 11.3549 19.4267 11.3564 19.4253L22.7158 8.3219C24.6638 6.41787 24.6638 3.33122 22.7158 1.42719C20.7676 -0.475729 17.61 -0.475729 15.6632 1.42719L1.94545 14.9062C-0.648794 17.442 -0.648795 21.5577 1.94732 24.0965C4.54515 26.6345 8.75577 26.6345 11.352 24.0967L24.6775 11.0012C25.1092 10.577 25.1072 9.89107 24.6733 9.46912Z" fill="#41638A"/>
</svg>
