<svg width="20" height="20" viewBox="0 0 20 20" fill="none" xmlns="http://www.w3.org/2000/svg">
<path d="M10 0C4.47757 0 0 4.47755 0 10C0 15.5224 4.47757 20 10 20C15.5225 20 20 15.5223 20 10C20 4.47755 15.5225 0 10 0ZM15.2807 14.5911L14.48 15.392C14.3371 15.5347 13.9185 15.6238 13.9051 15.6238C11.3721 15.6459 8.93316 14.6509 7.1412 12.8588C5.34433 11.0609 4.34822 8.61331 4.37497 6.07178C4.37497 6.07062 4.46664 5.66404 4.60947 5.52258L5.41011 4.72181C5.7031 4.42747 6.26591 4.29445 6.66017 4.42635L6.82859 4.48254C7.2217 4.61431 7.63443 5.04897 7.74304 5.44941L8.14579 6.92761C8.25441 7.32921 8.10791 7.90055 7.81501 8.19353L7.28039 8.72823C7.80528 10.6714 9.32994 12.1963 11.2734 12.7225L11.8078 12.1877C12.1022 11.8933 12.6733 11.7469 13.074 11.8554L14.552 12.2596C14.9526 12.3696 15.3872 12.7798 15.5189 13.1728L15.5751 13.3436C15.7057 13.7368 15.5737 14.2994 15.2807 14.5911Z" fill="#F35E5E"/>
</svg>
