<svg width="45" height="45" viewBox="0 0 45 45" fill="none" xmlns="http://www.w3.org/2000/svg">
<path d="M22.5 0C10.0938 0 0 10.093 0 22.5C0 34.907 10.0938 45 22.5 45C34.9062 45 45 34.907 45 22.5C45 10.093 34.9062 0 22.5 0ZM22.5 43.2692C11.0484 43.2692 1.73077 33.9516 1.73077 22.5C1.73077 11.0484 11.0484 1.73077 22.5 1.73077C33.9516 1.73077 43.2692 11.0484 43.2692 22.5C43.2692 33.9516 33.9516 43.2692 22.5 43.2692Z" fill="#41638A"/>
<path d="M33.3174 21.6346H23.3655V12.1154C23.3655 11.6368 22.9778 11.25 22.5001 11.25C22.0224 11.25 21.6347 11.6368 21.6347 12.1154V21.6346H11.6828C11.2051 21.6346 10.8174 22.0214 10.8174 22.5C10.8174 22.9786 11.2051 23.3654 11.6828 23.3654H21.6347V33.75C21.6347 34.2286 22.0224 34.6154 22.5001 34.6154C22.9778 34.6154 23.3655 34.2286 23.3655 33.75V23.3654H33.3174C33.7951 23.3654 34.1828 22.9786 34.1828 22.5C34.1828 22.0214 33.7951 21.6346 33.3174 21.6346Z" fill="#41638A"/>
</svg>
