<svg width="23" height="19" viewBox="0 0 23 19" fill="none" xmlns="http://www.w3.org/2000/svg">
<path d="M20.9558 0H16.1859C15.0616 0 13.4913 0.653475 12.6962 1.45223L4.68468 9.50128C3.88968 10.3 3.88968 11.607 4.68468 12.4058L10.652 18.4009C11.447 19.1997 12.748 19.1997 13.543 18.4009L21.5545 10.352C22.3495 9.55324 23 7.97552 23 6.84594V2.05379C23 0.924205 22.0801 0 20.9558 0ZM18.2301 6.84594C17.1012 6.84594 16.1859 5.92646 16.1859 4.79215C16.1859 3.65788 17.1012 2.73836 18.2301 2.73836C19.3591 2.73836 20.2744 3.65788 20.2744 4.79215C20.2744 5.92646 19.3591 6.84594 18.2301 6.84594ZM1.67678 11.4376L8.96735 18.7622C8.19513 19.1721 7.21141 19.0519 6.56356 18.4009L0.596247 12.4058C-0.198749 11.607 -0.198749 10.3 0.596247 9.50128L8.60782 1.45223C9.40285 0.653475 10.9732 0 12.0975 0L1.67678 10.4694C1.41181 10.7357 1.41181 11.1713 1.67678 11.4376Z" fill="#3D5C81"/>
</svg>
