<svg width="34" height="34" viewBox="0 0 34 34" fill="none" xmlns="http://www.w3.org/2000/svg">
<path d="M3.15062 3.14654C1.11845 5.17882 0 7.8799 0 10.7542C0 13.628 1.11872 16.3299 3.15062 18.3622C6.84008 22.0526 12.565 22.4946 16.7446 19.6924L16.9434 19.8918C17.5009 20.4485 18.316 20.5941 19.0102 20.3291L21.024 22.3436L20.7928 22.5754C20.6909 22.6772 20.6882 22.8401 20.7871 22.9455L30.6417 33.4248C31.4087 34.1917 32.6566 34.1917 33.4234 33.4248C33.795 33.0528 34 32.5595 34 32.0336C34 31.5087 33.795 31.0149 33.4177 30.6375L22.9459 20.7859C22.8411 20.6879 22.6772 20.6903 22.5759 20.7916L22.3442 21.0237L20.3306 19.0089C20.4154 18.7858 20.46 18.5502 20.46 18.3149C20.46 17.8176 20.2715 17.3203 19.8928 16.9421L19.6957 16.7452C20.8787 14.9876 21.5147 12.9202 21.5147 10.7542C21.5147 7.8799 20.3955 5.17875 18.3638 3.14647C14.1693 -1.04883 7.34461 -1.04883 3.15062 3.14654ZM16.4878 5.02207C18.0178 6.55323 18.8613 8.58902 18.8613 10.7542C18.8613 12.9197 18.0178 14.9555 16.4878 16.4861C13.3282 19.6467 8.18622 19.6467 5.02614 16.4861C3.49499 14.9555 2.65257 12.9197 2.65257 10.7537C2.65257 8.58848 3.49499 6.55269 5.0256 5.02207C8.18514 1.86114 13.3272 1.86114 16.4878 5.02207Z" fill="#41638A"/>
</svg>
