<svg width="45" height="45" viewBox="0 0 45 45" fill="none" xmlns="http://www.w3.org/2000/svg">
<path d="M22.4987 0C10.0933 0 0 10.0937 0 22.5005C0 34.9073 10.0925 45 22.4987 45C34.9058 45 45 34.9072 45 22.5005C45 10.0938 34.9058 0 22.4987 0ZM22.4987 43.2665C11.0479 43.2665 1.73251 33.9499 1.73251 22.4995C1.73251 11.0483 11.0479 1.73177 22.4987 1.73177C33.9502 1.73177 43.2674 11.0475 43.2674 22.4995C43.2665 33.9509 33.9504 43.2665 22.4987 43.2665ZM37.2154 24.7894C35.7886 31.7608 29.5806 36.8218 22.4536 36.8218C15.441 36.8218 9.41228 32.064 7.79327 25.2485C7.62693 24.551 8.05841 23.851 8.75664 23.6848C9.45744 23.5124 10.1557 23.9508 10.3212 24.6473C11.6623 30.2854 16.6513 34.2229 22.4538 34.2229C28.3516 34.2229 33.4887 30.0368 34.6695 24.2688C34.8141 23.5644 35.5037 23.1131 36.2037 23.2552C36.9061 23.3989 37.3592 24.0859 37.2154 24.7894ZM25.1227 15.7197C25.1227 14.2824 26.287 13.119 27.7233 13.119C29.1595 13.119 30.3239 14.2824 30.3239 15.7197C30.3239 17.1551 29.1595 18.3203 27.7233 18.3203C26.287 18.3203 25.1227 17.1553 25.1227 15.7197ZM14.294 15.7197C14.294 14.2824 15.4583 13.119 16.8946 13.119C18.3308 13.119 19.4952 14.2824 19.4952 15.7197C19.4952 17.1551 18.3308 18.3203 16.8946 18.3203C15.4583 18.3203 14.294 17.1553 14.294 15.7197Z" fill="#41638A"/>
</svg>
