<svg width="45" height="45" viewBox="0 0 45 45" fill="none" xmlns="http://www.w3.org/2000/svg">
<path d="M22.5 45C10.0929 45 0 34.9066 0 22.501C0 10.0944 10.0929 0 22.5 0C34.9071 0 45 10.0934 45 22.501C45 34.9087 34.9071 45 22.5 45ZM22.5 1.52591C10.9352 1.52591 1.52584 10.9357 1.52584 22.501C1.52584 34.0664 10.9352 43.4761 22.5 43.4761C34.0648 43.4761 43.4742 34.0664 43.4742 22.501C43.4742 10.9357 34.0648 1.52591 22.5 1.52591Z" fill="#41638A"/>
<path d="M22.5001 43C22.4345 43 22.3689 42.9755 22.3108 42.9268C22.2607 42.8849 17.2321 38.645 11.0574 30.7056C4.85545 22.7311 3.10318 17.415 3.03154 17.1926C2.97617 17.0205 2.99463 16.8203 3.0796 16.6729C3.1686 16.5184 5.28251 12.8669 7.11665 10.9665C8.93526 9.08235 10.4246 7.96608 10.4871 7.91938C10.5265 7.89009 10.5695 7.87091 10.6139 7.86308C10.6503 7.85652 14.2878 7.21407 17.2127 7.06639C18.0848 7.02221 18.9893 7 19.901 7C21.347 7 22.3588 7.0573 22.5001 7.06563C22.6412 7.0573 23.6534 7 25.0992 7C26.0109 7 26.9154 7.02221 27.7874 7.06639C30.7122 7.21407 34.3497 7.85652 34.3861 7.86308C34.4305 7.87091 34.4736 7.89009 34.5129 7.91938C34.5754 7.96608 36.0647 9.08235 37.8834 10.9665C39.7175 12.8669 41.8312 16.5184 41.9204 16.6729C42.0054 16.82 42.0238 17.0205 41.9685 17.1926C41.8968 17.415 40.1447 22.7311 33.9428 30.7056C27.7679 38.645 22.7395 42.8849 22.6894 42.9268C22.6313 42.9755 22.5657 43 22.5001 43ZM3.79703 17.0548C4.23761 18.2349 6.25577 23.1519 11.5555 29.9664C17.0031 36.9708 21.5349 41.057 22.5003 41.8999C23.4659 41.0562 28.0012 36.9658 33.445 29.9664C38.744 23.1529 40.7624 18.2362 41.2035 17.0548C40.6933 16.1973 38.9379 13.3208 37.4451 11.7746C35.8707 10.1433 34.5175 9.07781 34.2246 8.85289C33.7118 8.76428 30.4317 8.21069 27.7609 8.07563C26.8977 8.03196 26.0023 8.01 25.0995 8.01C23.5649 8.01 22.5275 8.07488 22.5173 8.07563C22.5059 8.07639 22.4948 8.07639 22.4835 8.07563C22.4732 8.07488 21.4362 8.01 19.9014 8.01C18.9985 8.01 18.103 8.03196 17.24 8.07563C14.5685 8.21069 11.2891 8.76428 10.7762 8.85289C10.4834 9.07806 9.13024 10.1433 7.55559 11.7746C6.06171 13.322 4.30687 16.1973 3.79703 17.0548ZM22.5246 38.808C22.4917 38.808 22.459 38.802 22.4268 38.7896C22.4005 38.7795 21.771 38.5316 20.623 37.5287C19.5028 36.5502 18.4358 35.3696 18.3909 35.3199C18.258 35.1727 18.2165 34.9182 18.2907 34.7062C18.3649 34.4947 18.5343 34.3805 18.7011 34.4338C18.7255 34.4414 21.1422 35.1987 22.546 35.2207L22.6602 35.2214C24.0804 35.2214 26.1962 34.8375 26.2172 34.8334C26.3847 34.8021 26.545 34.9344 26.606 35.1517C26.6669 35.3691 26.6122 35.6157 26.4735 35.7488C26.4248 35.7957 25.2678 36.9037 24.3609 37.6097C23.4496 38.3193 22.6956 38.7515 22.664 38.7697C22.6196 38.7952 22.5723 38.808 22.5246 38.808ZM20.1282 35.854C20.4068 36.1256 20.7096 36.4099 21.0137 36.6752C21.7867 37.3505 22.2963 37.6514 22.51 37.7624C22.7572 37.6127 23.3421 37.2444 24.0024 36.7302C24.2562 36.5326 24.534 36.2988 24.8011 36.0658C24.1224 36.1529 23.3266 36.2314 22.6604 36.2314L22.5379 36.2307C21.8294 36.2193 20.9083 36.0408 20.1282 35.854ZM23.983 34.4944C23.9828 34.4944 23.9828 34.4944 23.9825 34.4944C22.4544 34.4944 20.629 34.1791 18.7039 33.5828C13.7482 32.0478 11.0746 27.0712 10.9633 26.8602C10.8703 26.684 10.8699 26.4449 10.9622 26.268C11.0543 26.0908 11.2186 26.0156 11.3691 26.0814C11.3739 26.0835 11.868 26.2973 13.4659 26.8271C14.7779 27.2621 15.5659 27.3378 18.4981 27.6195C19.1465 27.6819 19.8974 27.7538 20.7791 27.8422C26.0008 28.3645 27.223 28.8529 27.7659 29.303C28.2459 29.7009 28.5414 30.23 28.6205 30.8336C28.7055 31.4818 28.5392 32.1742 28.1262 32.8909C27.5305 33.9249 26.0591 34.4944 23.983 34.4944ZM12.3322 27.483C13.4295 29.0266 15.6611 31.6058 18.8638 32.5976C20.7372 33.1779 22.5074 33.4846 23.9825 33.4846C23.9826 33.4846 23.9828 33.4846 23.983 33.4846C25.7782 33.4846 27.1133 33.0275 27.5543 32.2621C27.8304 31.7832 27.947 31.3629 27.9013 31.0135C27.8501 30.6235 27.5948 30.339 27.3898 30.1689C26.7701 29.6554 24.7151 29.2485 20.7263 28.8494C19.8453 28.7613 19.0951 28.6894 18.4475 28.627C15.5431 28.3481 14.6665 28.264 13.2954 27.8094C12.9153 27.6834 12.5971 27.5751 12.3322 27.483ZM34.277 25.5872C34.2343 25.5872 34.1911 25.5768 34.1495 25.5554C34.0022 25.4796 33.9064 25.2822 33.9117 25.0654C33.9135 24.9717 33.9402 22.7147 32.478 21.0054C30.8823 19.1402 28.1125 18.4874 25.8776 18.1274C24.9422 17.9767 23.8801 17.8331 22.8531 17.6942C21.1213 17.4602 19.4851 17.2391 18.569 17.002C17.9742 16.8968 15.1427 16.3109 14.7047 14.6266C14.6 14.2245 14.5817 13.5891 15.0879 12.8462C15.8627 11.709 17.488 11.1324 19.9187 11.1324C21.7161 11.1324 23.6923 11.4626 24.838 11.7453C26.5485 12.1671 29.1501 13.0464 31.8312 14.8394C34.4928 16.6196 36.909 20.3862 37.0106 20.5455C37.1283 20.73 37.1325 21.0049 37.0205 21.1963L34.5612 25.3994C34.4906 25.5205 34.3854 25.5872 34.277 25.5872ZM19.9187 12.1421C17.729 12.1421 16.2426 12.6248 15.6204 13.5381C15.4179 13.8355 15.3411 14.0867 15.3927 14.2851C15.607 15.11 17.4393 15.7856 18.6719 16.0021C18.6792 16.0034 18.6865 16.0049 18.6937 16.0069C19.5757 16.2367 21.2023 16.4565 22.9244 16.6893C23.9547 16.8286 25.0202 16.9728 25.9624 17.1245C28.4444 17.5243 31.2154 18.2067 32.9502 20.2345C33.9649 21.4207 34.3726 22.8384 34.5356 23.837L36.2542 20.8997C35.6176 19.9614 33.6095 17.1502 31.5129 15.7482C28.9069 14.0054 26.3749 13.1499 24.7098 12.7391C23.5932 12.4637 21.6686 12.1421 19.9187 12.1421ZM8.23958 22.3532C8.125 22.3532 8.01353 22.279 7.94299 22.1434L6.03978 18.4869C5.97162 18.3559 5.95279 18.1877 5.98934 18.0345C6.01894 17.9103 6.73382 14.9661 8.55973 12.7551C10.3659 10.5679 11.6146 9.97143 11.6668 9.94695C11.7045 9.92953 11.7438 9.92069 11.7836 9.92069H13.9132C14.0929 9.92069 14.246 10.1012 14.2741 10.3466C14.3023 10.5917 14.1972 10.829 14.0263 10.9057C13.9907 10.9216 10.4434 12.547 9.23861 15.5935C8.03729 18.6308 8.58769 21.6911 8.59336 21.7216C8.63722 21.9569 8.5537 22.2025 8.39454 22.3055C8.34483 22.3378 8.29184 22.3532 8.23958 22.3532ZM6.74679 18.1155L7.727 19.9987C7.71932 18.7007 7.88306 16.9155 8.5972 15.1095C9.36762 13.1615 10.9112 11.7741 12.1189 10.9307H11.8501C11.6076 11.0637 10.5262 11.717 9.04161 13.5146C7.65408 15.1949 6.94963 17.4001 6.74679 18.1155ZM38.2313 20.3289C38.1328 20.3289 38.0381 20.2739 37.9692 20.1759C37.9056 20.0858 36.4035 17.9446 35.5841 16.2006C34.7483 14.4219 34.3264 11.8231 34.3088 11.7135C34.2768 11.5138 34.3351 11.3076 34.4565 11.1907C34.5778 11.0738 34.7382 11.0695 34.8627 11.1793C34.9086 11.22 36.0041 12.1957 37.3501 14.0248C38.7051 15.8658 39.5212 17.8298 39.5552 17.9123C39.6307 18.0956 39.6159 18.3243 39.5179 18.4859L38.5116 20.1479C38.4453 20.2575 38.3482 20.3231 38.245 20.3284C38.2404 20.3289 38.2359 20.3289 38.2313 20.3289ZM35.3013 12.8714C35.4992 13.7206 35.7999 14.8056 36.1972 15.6508C36.7727 16.8756 37.7403 18.3609 38.2145 19.0647L38.7894 18.115C38.5142 17.5097 37.8181 16.0769 36.8374 14.7443C36.255 13.9529 35.7168 13.324 35.3013 12.8714ZM32.6141 13.3114C31.7596 13.3114 30.5875 12.7255 29.4538 12.159C28.9988 11.9316 28.569 11.717 28.167 11.5421C26.6683 10.8908 24.5859 10.2294 24.565 10.2229C24.3838 10.1656 24.2626 9.92928 24.2834 9.67406C24.3043 9.41885 24.4607 9.22599 24.6465 9.22599C24.673 9.22599 27.3132 9.22876 29.8127 9.46908C32.319 9.70991 33.3105 9.94897 33.3514 9.95906C33.4726 9.98885 33.5749 10.1009 33.6234 10.2574C33.6689 10.4041 34.0579 11.7165 33.7025 12.5907C33.5938 12.8578 33.3704 13.1948 32.9235 13.2831C32.8275 13.3018 32.7234 13.3114 32.6141 13.3114ZM27.7915 10.3312C27.9954 10.4129 28.1953 10.496 28.3863 10.579C28.8031 10.76 29.2603 10.9888 29.7025 11.2096C30.7768 11.7466 31.8879 12.3017 32.6143 12.3019C32.689 12.3019 32.7585 12.2956 32.8202 12.2835C32.9829 12.2514 33.0366 12.1666 33.0653 12.0959C33.1764 11.8228 33.1015 11.2791 33.0181 10.91C32.6148 10.8302 31.5959 10.6528 29.7621 10.4766C29.0977 10.4124 28.4232 10.3655 27.7915 10.3312Z" fill="#41638A"/>
</svg>
