<svg width="50" height="50" viewBox="0 0 50 50" fill="none" xmlns="http://www.w3.org/2000/svg">
<path fill-rule="evenodd" clip-rule="evenodd" d="M25 50C38.8071 50 50 38.8071 50 25C50 11.1929 38.8071 0 25 0C11.1929 0 0 11.1929 0 25C0 38.8071 11.1929 50 25 50ZM32.2314 37.5386L36.9834 14.9072C37.106 14.3237 36.5269 13.8367 35.9658 14.0518L9.4873 24.1658C8.8335 24.415 8.83936 25.3311 9.49463 25.5742C13.564 27.0779 16.7012 30.3623 17.9912 34.4695L18.4434 35.9102C18.6035 36.4192 19.2324 36.6074 19.6499 36.2695L23.2461 33.3669C23.4736 33.1831 23.7598 33.105 24.0371 33.1338C24.2192 33.1531 24.3979 33.2183 24.5537 33.3306L31.0405 37.9934C31.4873 38.3147 32.1196 38.0728 32.2314 37.5386ZM31.3594 18.8958L18.7505 26.585C18.2671 26.8804 18.04 27.458 18.1953 27.999L19.5586 32.7422C19.6558 33.0784 20.1479 33.0439 20.1953 32.6965L20.5498 30.0957C20.6167 29.606 20.8525 29.1545 21.2183 28.8176L31.6245 19.24C31.8193 19.0613 31.5859 18.7581 31.3594 18.8958Z" fill="#41638A"/>
</svg>
