<svg width="19" height="20" viewBox="0 0 19 20" fill="none" xmlns="http://www.w3.org/2000/svg">
<path d="M1 4.59961H2.88889H18" stroke="#F35E5E" stroke-width="2" stroke-linecap="round" stroke-linejoin="round"/>
<path d="M5.72225 4.6V2.8C5.72225 2.32261 5.92126 1.86477 6.27549 1.52721C6.62973 1.18964 7.11017 1 7.61114 1H11.3889C11.8899 1 12.3703 1.18964 12.7246 1.52721C13.0788 1.86477 13.2778 2.32261 13.2778 2.8V4.6M16.1111 4.6V17.2C16.1111 17.6774 15.9121 18.1352 15.5579 18.4728C15.2037 18.8104 14.7232 19 14.2222 19H4.7778C4.27684 19 3.79639 18.8104 3.44216 18.4728C3.08792 18.1352 2.88892 17.6774 2.88892 17.2V4.6H16.1111Z" stroke="#F35E5E" stroke-width="2" stroke-linecap="round" stroke-linejoin="round"/>
</svg>
