<svg width="50" height="50" viewBox="0 0 50 50" fill="none" xmlns="http://www.w3.org/2000/svg">
<path fill-rule="evenodd" clip-rule="evenodd" d="M25 50C38.8071 50 50 38.8071 50 25C50 11.1929 38.8071 0 25 0C11.1929 0 0 11.1929 0 25C0 38.8071 11.1929 50 25 50ZM37.23 20.5527L37.2319 20.7864C37.2319 28.1074 31.6606 36.5459 21.4688 36.5459C18.3398 36.5459 15.4272 35.6316 12.9766 34.0591C13.1997 34.0857 13.4243 34.1055 13.6509 34.1184C13.8652 34.1306 14.0811 34.1367 14.2979 34.1367C16.8945 34.1367 19.2822 33.2505 21.1787 31.7651C18.7544 31.7205 16.7085 30.1189 16.0029 27.9172C16.3408 27.9812 16.6885 28.0171 17.0444 28.0171C17.5498 28.0171 18.04 27.9512 18.5044 27.824C15.9702 27.3162 14.061 25.0774 14.061 22.3918L14.062 22.322C14.8091 22.7361 15.6626 22.9863 16.5703 23.0144C15.085 22.0225 14.1069 20.3259 14.1069 18.4043C14.1069 17.3882 14.3794 16.436 14.8564 15.6179C17.5874 18.9705 21.6714 21.175 26.2744 21.408C26.2314 21.2249 26.1982 21.0383 26.1748 20.8491C26.146 20.6187 26.1318 20.3835 26.1318 20.1445C26.1318 17.0857 28.6118 14.6047 31.6709 14.6047C33.2646 14.6047 34.7026 15.2773 35.7144 16.3538C36.9775 16.1055 38.1606 15.646 39.2339 15.009C38.8174 16.3032 37.9414 17.3882 36.7949 18.0745C37.4614 17.9951 38.1099 17.8582 38.7339 17.6675C39.1602 17.5374 39.5747 17.3821 39.9766 17.2031C39.2378 18.3123 38.2983 19.2883 37.2158 20.0669C37.2227 20.228 37.2275 20.3901 37.23 20.5527Z" fill="#41638A"/>
</svg>
