<svg width="24" height="22" viewBox="0 0 24 22" fill="none" xmlns="http://www.w3.org/2000/svg">
<path d="M21.1718 16.596L17.669 14.8593C17.3387 14.6953 17.1333 14.3658 17.1333 13.9993V12.7698C17.2173 12.668 17.3057 12.552 17.397 12.424C17.8513 11.7876 18.2154 11.0793 18.4801 10.3153C18.9975 10.08 19.3333 9.57273 19.3333 9V7.54545C19.3333 7.19527 19.2013 6.856 18.9667 6.59091V4.65673C18.9872 4.45673 19.0679 3.26618 18.1996 2.284C17.4465 1.432 16.2244 1 14.5667 1C12.909 1 11.6869 1.432 10.9337 2.28364C10.4076 2.87891 10.2305 3.54945 10.1769 4.03091C9.54847 3.70873 8.8078 3.54545 7.96667 3.54545C4.15737 3.54545 3.93553 6.76545 3.93333 6.81818V8.48327C3.69573 8.74 3.56667 9.03636 3.56667 9.33055V10.5865C3.56667 10.9789 3.74377 11.3447 4.04737 11.592C4.34987 12.7229 5.09383 13.5775 5.3835 13.8775V14.8749C5.3835 15.1611 5.22657 15.4236 4.95413 15.5713L2.5147 17.0887C1.58043 17.5942 1 18.564 1 19.6193V21H6.13333H6.86667H23V19.5298C23 18.2796 22.2993 17.1553 21.1718 16.596ZM6.13333 19.4589V20.2727H1.73333V19.6193C1.73333 18.8302 2.16747 18.1051 2.88503 17.7164L5.3241 16.1989C5.81287 15.9345 6.11647 15.4276 6.11647 14.8749V13.5691L5.99987 13.4611C5.99033 13.4524 5.0161 12.5396 4.72827 11.2956L4.6949 11.1516L4.5695 11.0716C4.40083 10.9633 4.3 10.7818 4.3 10.5865V9.33055C4.3 9.19964 4.38983 9.044 4.54603 8.90364L4.66667 8.79564L4.66593 6.83927C4.67253 6.73491 4.86357 4.27273 7.96667 4.27273C8.8441 4.27273 9.58293 4.47382 10.1667 4.87055V6.59091C9.932 6.856 9.8 7.19527 9.8 7.54545V9C9.8 9.11055 9.81283 9.21927 9.83703 9.32473C9.84693 9.36691 9.86673 9.40545 9.8803 9.44618C9.90047 9.50727 9.9166 9.57018 9.94483 9.628C9.9452 9.62873 9.94557 9.62909 9.94593 9.62982C10.0398 9.82182 10.1766 9.99345 10.3489 10.1305C10.3507 10.1375 10.3529 10.1436 10.3548 10.1502C10.3768 10.2335 10.3999 10.3164 10.4248 10.3975L10.4545 10.4924C10.4596 10.5091 10.4659 10.5262 10.4714 10.5429C10.4842 10.5822 10.4967 10.6211 10.5099 10.6596C10.5319 10.7233 10.555 10.7891 10.5817 10.8607C10.5931 10.8905 10.6056 10.9175 10.6173 10.9469C10.6474 11.0229 10.6774 11.0964 10.709 11.1691C10.7167 11.1865 10.7233 11.2055 10.731 11.2225L10.7515 11.2684C10.761 11.2895 10.7709 11.3084 10.7805 11.3291C10.8164 11.4069 10.8516 11.4822 10.8883 11.5549C10.8941 11.5665 10.8996 11.5793 10.9055 11.5909C10.9286 11.6364 10.9517 11.6793 10.9748 11.7229C11.0144 11.7978 11.0533 11.8684 11.0921 11.9367C11.1112 11.9702 11.1299 12.0029 11.1486 12.0345C11.2014 12.124 11.2516 12.2062 11.3004 12.2825C11.311 12.2989 11.3213 12.316 11.3316 12.3316C11.4203 12.468 11.4973 12.5785 11.5611 12.6647C11.578 12.6876 11.5926 12.7073 11.6069 12.7265C11.615 12.7371 11.626 12.7524 11.633 12.7618V13.9651C11.633 14.3171 11.4394 14.64 11.1281 14.8087L10.1579 15.3335L9.98883 15.3185L9.9199 15.4622L7.85703 16.5782C6.7937 17.1542 6.13333 18.2575 6.13333 19.4589ZM22.2667 20.2727H6.86667V19.4589C6.86667 18.524 7.38073 17.6647 8.2083 17.2175L11.4793 15.448C12.0268 15.1516 12.3667 14.5833 12.3667 13.9655V12.5044V12.504L12.2955 12.4196L12.2816 12.4033C12.2809 12.4022 12.2581 12.3749 12.2211 12.3269C12.2189 12.324 12.2167 12.3211 12.2141 12.3182C12.1947 12.2931 12.172 12.2629 12.1459 12.2269C12.1456 12.2262 12.1452 12.2258 12.1448 12.2251C12.0902 12.1498 12.0216 12.052 11.9454 11.9342C11.9435 11.9316 11.9421 11.9287 11.9402 11.9262C11.9043 11.8705 11.8662 11.8098 11.8273 11.7455C11.8244 11.7407 11.8214 11.736 11.8185 11.7309C11.7356 11.5931 11.6476 11.4371 11.56 11.2644C11.56 11.2644 11.5596 11.264 11.5596 11.2636C11.5131 11.1709 11.4665 11.0735 11.421 10.972C11.4148 10.9578 11.4082 10.944 11.402 10.9298C11.3818 10.8844 11.3616 10.8367 11.3411 10.7876C11.3338 10.7698 11.3264 10.7513 11.3191 10.7331C11.3 10.6855 11.2806 10.6375 11.2601 10.5825C11.2227 10.4836 11.1875 10.3804 11.1537 10.2738L11.1336 10.2091C11.1314 10.2018 11.1288 10.1945 11.1266 10.1869C11.0921 10.072 11.0591 9.95455 11.0313 9.83382L10.9979 9.68982L10.8729 9.60982C10.6602 9.47382 10.5333 9.24582 10.5333 9V7.54545C10.5333 7.34145 10.6206 7.15127 10.779 7.00909L10.9 6.90109V4.63636V4.50764L10.8901 4.5C10.8776 4.23745 10.8934 3.43273 11.4852 2.76327C12.0928 2.07564 13.1297 1.72727 14.5667 1.72727C15.9985 1.72727 17.0332 2.07309 17.6415 2.75564C18.3554 3.556 18.2374 4.58 18.2366 4.58873L18.2333 6.90109L18.3543 7.00945C18.5127 7.15127 18.6 7.34145 18.6 7.54545V9C18.6 9.31745 18.3903 9.59527 18.0786 9.69055L17.896 9.74618L17.8373 9.92618C17.592 10.6829 17.2426 11.3818 16.7982 12.0036C16.6893 12.1567 16.5833 12.2924 16.4913 12.396L16.4 12.4993V13.9993C16.4 14.6429 16.7604 15.2215 17.3409 15.5095L20.8436 17.2462C21.7214 17.6815 22.2667 18.5564 22.2667 19.5298V20.2727Z" fill="white" stroke="#919191"/>
</svg>
