<svg width="45" height="45" viewBox="0 0 45 45" fill="none" xmlns="http://www.w3.org/2000/svg">
<path d="M22.5 0C10.0938 0 0 10.093 0 22.5C0 34.907 10.0938 45 22.5 45C34.9062 45 45 34.907 45 22.5C45 10.093 34.9062 0 22.5 0ZM22.5 43.2692C11.0484 43.2692 1.73077 33.9516 1.73077 22.5C1.73077 11.0484 11.0484 1.73077 22.5 1.73077C33.9516 1.73077 43.2692 11.0484 43.2692 22.5C43.2692 33.9516 33.9516 43.2692 22.5 43.2692Z" fill="#41638A"/>
<path d="M28.825 36.6948C28.5481 36.6195 28.2676 36.801 28.1989 37.0972L27.6822 39.3115C27.6125 39.6088 27.7814 39.9088 28.0583 39.983C28.1002 39.9946 28.1426 39.9996 28.1839 39.9996C28.4154 39.9996 28.6257 39.8319 28.6846 39.5806L29.2012 37.3663C29.2704 37.0695 29.102 36.769 28.825 36.6948Z" fill="#41638A"/>
<path d="M22.5 25.6069C22.5671 25.6069 22.6343 25.5931 22.6974 25.5649L28.3807 23.045C28.6442 22.9281 28.7692 22.6043 28.6602 22.322C28.5512 22.039 28.2479 21.9062 27.985 22.0219L22.5 24.4543L8.03335 18.0406V17.8568C8.03335 17.5512 7.80188 17.3032 7.51671 17.3032C7.23153 17.3032 7 17.5512 7 17.8568V18.4103C7 18.6345 7.12606 18.8366 7.31932 18.9219L22.3026 25.5648C22.3656 25.593 22.4328 25.6069 22.5 25.6069Z" fill="#41638A"/>
<path d="M28.6465 31.2791C28.5204 31.0051 28.2115 30.8921 27.9547 31.0278C26.9735 31.5476 25.3346 32.1521 23.0169 32.2346V27.2684C23.0169 26.9629 22.7854 26.7149 22.5003 26.7149C22.2151 26.7149 21.9836 26.9629 21.9836 27.2684V32.2296C15.5682 32.0104 13.4979 27.8464 13.2003 27.1533V23.3934C13.2003 23.0879 12.9688 22.8398 12.6836 22.8398C12.3985 22.8398 12.167 23.0879 12.167 23.3934V27.2684C12.167 27.3387 12.1794 27.4085 12.2037 27.4743C12.2936 27.714 14.4925 33.3577 22.5003 33.3577C25.2991 33.3577 27.2604 32.6303 28.4125 32.0203C28.6686 31.8847 28.7736 31.5531 28.6465 31.2791Z" fill="#41638A"/>
<path d="M30.25 37.2324C29.9643 37.2324 29.7334 37.4804 29.7334 37.786V39.4467C29.7334 39.7523 29.9643 40.0003 30.25 40.0003C30.5358 40.0003 30.7667 39.7523 30.7667 39.4467V37.786C30.7667 37.4804 30.5358 37.2324 30.25 37.2324Z" fill="#41638A"/>
<path d="M37.4833 17.3036C37.1976 17.3036 36.9667 17.5516 36.9667 17.8571V18.0398L30.7667 20.7739V19.7736L37.6807 16.7079C37.8739 16.6226 38 16.4205 38 16.1963C38 15.9721 37.8739 15.7706 37.6812 15.6848L22.6974 9.04194C22.5708 8.98602 22.4292 8.98602 22.3026 9.04194L7.31932 15.6849C7.12606 15.7707 7 15.9722 7 16.1964C7 16.4206 7.12606 16.6227 7.31932 16.7079L22.3026 23.3509C22.3657 23.3791 22.4328 23.393 22.5 23.393C22.5672 23.393 22.6344 23.3791 22.6974 23.3509L28.1152 20.9489C28.3792 20.8326 28.5043 20.5088 28.3952 20.2259C28.2862 19.9436 27.9839 19.8101 27.7204 19.9264L22.5 22.2404L8.86775 16.1964L22.5 10.1524L36.1322 16.1964L30.2004 18.8265L24.5186 16.5535C24.5486 16.4383 24.5667 16.3199 24.5667 16.1964C24.5667 15.2653 23.6589 14.5357 22.5 14.5357C21.3412 14.5357 20.4334 15.2653 20.4334 16.1964C20.4334 17.1275 21.3412 17.8571 22.5 17.8571C23.0172 17.8571 23.4786 17.706 23.8371 17.4625L29.7333 19.8213V21.595V21.5955V33.4593C29.1335 33.689 28.7 34.2974 28.7 35.0182C28.7 35.9338 29.3954 36.6789 30.25 36.6789C31.1045 36.6789 31.8 35.9338 31.8 35.0182C31.8 34.2974 31.3665 33.6891 30.7666 33.4593V30.3172C32.2499 29.1176 32.7816 27.52 32.8048 27.4491C32.8234 27.391 32.8332 27.3296 32.8332 27.2681V23.3931C32.8332 23.0875 32.6023 22.8395 32.3166 22.8395C32.0309 22.8395 31.8 23.0875 31.8 23.3931V27.1658C31.7106 27.4005 31.4 28.124 30.7666 28.8381V21.9714L37.6801 18.9228C37.8739 18.8376 37.9999 18.635 37.9999 18.4108V17.8572C37.9999 17.5516 37.769 17.3036 37.4833 17.3036ZM22.5 16.75C21.8691 16.75 21.4666 16.4222 21.4666 16.1964C21.4666 15.9705 21.8691 15.6428 22.5 15.6428C23.1309 15.6428 23.5333 15.9706 23.5333 16.1964C23.5333 16.4223 23.1308 16.75 22.5 16.75ZM30.25 35.5717C29.9648 35.5717 29.7333 35.3231 29.7333 35.0181C29.7333 34.7131 29.9648 34.4646 30.25 34.4646C30.5351 34.4646 30.7666 34.7131 30.7666 35.0181C30.7666 35.3231 30.5351 35.5717 30.25 35.5717Z" fill="#41638A"/>
<path d="M32.3015 37.0975C32.2323 36.8014 31.9512 36.6203 31.6754 36.6951C31.3984 36.7692 31.23 37.0698 31.2993 37.3666L31.8159 39.5809C31.8748 39.8322 32.0851 39.9999 32.3166 39.9999C32.3579 39.9999 32.4002 39.9949 32.4421 39.9833C32.7191 39.9092 32.8875 39.6091 32.8183 39.3118L32.3015 37.0975Z" fill="#41638A"/>
</svg>
