<svg width="50" height="50" viewBox="0 0 50 50" fill="none" xmlns="http://www.w3.org/2000/svg">
<path fill-rule="evenodd" clip-rule="evenodd" d="M25 50C38.8071 50 50 38.8071 50 25C50 11.1929 38.8071 0 25 0C11.1929 0 0 11.1929 0 25C0 38.8071 11.1929 50 25 50ZM34.8184 28.729C35.0825 28.9854 35.3506 29.2378 35.6191 29.4902L35.6323 29.502C36.3687 30.1958 37.105 30.8896 37.7568 31.6672C37.9521 31.9001 38.1421 32.1372 38.3184 32.3833C38.4985 32.635 38.6646 32.8965 38.8081 33.1736C39.2129 33.9546 38.8477 34.8113 38.144 34.8577L33.7749 34.8569C32.6465 34.9497 31.7485 34.4973 30.9912 33.7305C30.5854 33.3206 30.2002 32.8918 29.8145 32.4634C29.625 32.2529 29.4355 32.0427 29.2441 31.8345C29.0063 31.575 28.7554 31.3308 28.457 31.1387C27.8613 30.7534 27.3442 30.8716 27.0024 31.49C26.6548 32.1194 26.5757 32.8169 26.542 33.5173C26.4946 34.5415 26.1841 34.8091 25.1499 34.8574C22.9414 34.9602 20.8452 34.6272 18.8975 33.52C17.1787 32.5437 15.8486 31.1655 14.6899 29.6052C12.4331 26.5637 10.7046 23.2256 9.15137 19.7915C8.80176 19.0181 9.05762 18.604 9.91602 18.5881C10.6787 18.5735 11.4414 18.5676 12.2036 18.5688C12.8672 18.5701 13.5308 18.5762 14.1943 18.5867C14.7744 18.5959 15.1587 18.926 15.3813 19.4705C16.1519 21.3552 17.0967 23.1482 18.2812 24.8115C18.4214 25.0088 18.563 25.2056 18.7178 25.3911C18.9102 25.6218 19.1226 25.835 19.377 26.0085C19.8833 26.3538 20.269 26.2397 20.5073 25.678C20.5669 25.5403 20.6123 25.3987 20.6489 25.2551C20.7061 25.0264 20.7393 24.7917 20.7598 24.5566C20.873 23.2463 20.8867 21.9363 20.6899 20.6311C20.5679 19.8145 20.1055 19.2869 19.2866 19.1326C18.8696 19.054 18.9307 18.9004 19.1333 18.6636C19.4858 18.2542 19.8154 18.0007 20.4751 18.0007L25.4116 18C26.1899 18.1519 26.3643 18.4988 26.4697 19.2778L26.4741 24.7312C26.4653 25.0325 26.6265 25.926 27.1714 26.1233C27.5796 26.2576 27.8579 25.9612 28.106 25.6975L28.1562 25.644C29.3403 24.3953 30.1836 22.9214 30.939 21.3958C31.1138 21.0427 31.2764 20.6833 31.4312 20.3208C31.5718 19.9922 31.7065 19.6609 31.8394 19.3293C31.9551 19.042 32.1064 18.8359 32.3193 18.7112C32.4883 18.6123 32.6963 18.5647 32.9556 18.5686L37.7095 18.5742C37.7686 18.5742 37.8276 18.5745 37.8867 18.5767L37.9741 18.5811C38.0264 18.5847 38.0786 18.5903 38.1304 18.5994C38.9316 18.7356 39.1514 19.0781 38.9033 19.8552C38.5269 21.0332 37.8076 22.0215 37.0918 23.0051L37.0142 23.1118C36.6436 23.6208 36.2617 24.1218 35.8799 24.6223L35.3784 25.2822C35.1108 25.6362 34.8452 25.9919 34.5869 26.3525C33.8638 27.3545 33.9214 27.8589 34.8184 28.729Z" fill="#41638A"/>
</svg>
